<svg width="573" height="70" viewBox="0 0 573 70" fill="none" xmlns="http://www.w3.org/2000/svg">
<g clip-path="url(#clip0_67_4852)">
<rect width="572.444" height="70" fill="white"/>
<rect x="-230" y="-29.9996" width="1031" height="131" fill="#6C85F0"/>
<g filter="url(#filter0_f_67_4852)">
<ellipse cx="7.01005" cy="-70.9055" rx="536.208" ry="102" transform="rotate(-3.99338 7.01005 -70.9055)" fill="#B01FFB"/>
</g>
<g filter="url(#filter1_f_67_4852)">
<ellipse cx="612.276" cy="-50.9315" rx="318.553" ry="102" transform="rotate(-4.68011 612.276 -50.9315)" fill="#B01FFB"/>
</g>
<g filter="url(#filter2_f_67_4852)">
<ellipse cx="647.648" cy="152.298" rx="348.567" ry="102" transform="rotate(8.30834 647.648 152.298)" fill="#1D41FB"/>
</g>
<g filter="url(#filter3_f_67_4852)">
<ellipse cx="-122.909" cy="195.034" rx="368.5" ry="156.5" transform="rotate(-5.1642 -122.909 195.034)" fill="#00FD97"/>
</g>
<g filter="url(#filter4_bd_67_4852)">
<rect x="22.5557" y="11.6666" width="526.556" height="46.6667" rx="8" fill="url(#paint0_linear_67_4852)" shape-rendering="crispEdges"/>
<rect x="23.0557" y="12.1666" width="525.556" height="45.6667" rx="7.5" stroke="url(#paint1_angular_67_4852)" shape-rendering="crispEdges"/>
</g>
<g filter="url(#filter5_f_67_4852)">
<path d="M287.233 56.9485L313.438 31.9492H259.777L284.664 56.9155C285.007 57.2601 285.465 57.4554 285.942 57.4615C286.42 57.4677 286.882 57.2841 287.233 56.9485Z" fill="#FF9F00"/>
<path d="M287.443 6.82232L313.251 31.5788C313.296 31.6213 313.327 31.6767 313.341 31.738C313.355 31.7992 313.35 31.8633 313.328 31.9219C313.307 31.9806 313.268 32.031 313.218 32.0667C313.168 32.1024 313.109 32.1216 313.048 32.122H260.174C260.114 32.1216 260.056 32.1029 260.007 32.0682C259.957 32.0336 259.919 31.9845 259.896 31.9273C259.874 31.87 259.868 31.8072 259.88 31.7466C259.892 31.686 259.921 31.6305 259.963 31.587L284.449 6.85936C284.849 6.45722 285.382 6.22922 285.939 6.22233C286.496 6.21544 287.034 6.43018 287.443 6.82232Z" fill="#FF9F00"/>
<path d="M309.944 10.5754H263.089C262.916 10.5754 262.775 10.721 262.775 10.9005V47.1381C262.775 47.3176 262.916 47.4632 263.089 47.4632H309.944C310.118 47.4632 310.258 47.3176 310.258 47.1381V10.9005C310.258 10.721 310.118 10.5754 309.944 10.5754Z" fill="#A3C2FF"/>
<path d="M305.969 14.2544H266.764C266.107 14.2544 265.573 14.8071 265.573 15.4889V44.7226C265.573 45.4044 266.107 45.9571 266.764 45.9571H305.969C306.627 45.9571 307.16 45.4044 307.16 44.7226V15.4889C307.16 14.8071 306.627 14.2544 305.969 14.2544Z" fill="white"/>
<path d="M286.203 46.6151C286.477 46.4267 286.838 46.427 287.112 46.6158L310.968 63.0969C311.614 63.5429 311.298 64.5551 310.513 64.5551H262.715C261.929 64.5551 261.614 63.5414 262.261 63.0961L286.203 46.6151Z" fill="#FF9F00"/>
<path d="M286.492 45.7215L260.936 31.3392C260.816 31.2758 260.683 31.2449 260.548 31.2493C260.413 31.2537 260.282 31.2934 260.166 31.3646C260.051 31.4357 259.954 31.5361 259.886 31.6563C259.818 31.7765 259.781 31.9125 259.777 32.0518V63.7653C259.783 63.907 259.824 64.0448 259.896 64.1654C259.968 64.286 260.069 64.3853 260.189 64.4537C260.309 64.522 260.444 64.5571 260.582 64.5556C260.719 64.554 260.853 64.5159 260.972 64.4449L286.531 47.1136C286.643 47.0359 286.733 46.9303 286.795 46.8066C286.856 46.6829 286.886 46.5452 286.882 46.4062C286.878 46.2673 286.84 46.1316 286.772 46.0119C286.704 45.8922 286.607 45.7923 286.492 45.7215Z" fill="#FFDA44"/>
<path d="M286.733 45.7204L312.288 31.3372C312.408 31.2747 312.541 31.2445 312.675 31.2494C312.808 31.2543 312.939 31.2942 313.054 31.3652C313.169 31.4363 313.265 31.5363 313.333 31.656C313.401 31.7756 313.438 31.9111 313.442 32.0498V63.7652C313.437 63.907 313.396 64.0448 313.324 64.1654C313.251 64.286 313.15 64.3853 313.03 64.4536C312.91 64.522 312.775 64.5571 312.638 64.5556C312.501 64.554 312.367 64.5159 312.248 64.4449L286.678 47.1084C286.568 47.0292 286.479 46.9226 286.42 46.7986C286.36 46.6745 286.332 46.5369 286.338 46.3986C286.343 46.2602 286.382 46.1256 286.451 46.007C286.521 45.8885 286.618 45.7899 286.733 45.7204Z" fill="#FFDA44"/>
<path d="M303.476 16.0645H269.255C268.022 16.0645 267.023 17.0999 267.023 18.3771V31.208C267.023 32.4853 268.022 33.5207 269.255 33.5207H303.476C304.709 33.5207 305.708 32.4853 305.708 31.208V18.3771C305.708 17.0999 304.709 16.0645 303.476 16.0645Z" stroke="#CFCFCF" stroke-width="0.49" stroke-miterlimit="10"/>
<path d="M277.482 24.7932H269.152C269.033 24.7932 268.938 24.8927 268.938 25.0154V25.3981C268.938 25.5209 269.033 25.6203 269.152 25.6203H277.482C277.6 25.6203 277.696 25.5209 277.696 25.3981V25.0154C277.696 24.8927 277.6 24.7932 277.482 24.7932Z" fill="black"/>
<path d="M278.856 22.3856H269.152C269.033 22.3856 268.938 22.4851 268.938 22.6078V22.9905C268.938 23.1133 269.033 23.2128 269.152 23.2128H278.856C278.974 23.2128 279.07 23.1133 279.07 22.9905V22.6078C279.07 22.4851 278.974 22.3856 278.856 22.3856Z" fill="black"/>
<path d="M275.783 19.8342H269.152C269.033 19.8342 268.938 19.9337 268.938 20.0564V20.4391C268.938 20.5619 269.033 20.6614 269.152 20.6614H275.783C275.901 20.6614 275.997 20.5619 275.997 20.4391V20.0564C275.997 19.9337 275.901 19.8342 275.783 19.8342Z" fill="black"/>
<path d="M276.458 27.1013H269.152C269.033 27.1013 268.938 27.2008 268.938 27.3235V27.7062C268.938 27.829 269.033 27.9285 269.152 27.9285H276.458C276.576 27.9285 276.672 27.829 276.672 27.7062V27.3235C276.672 27.2008 276.576 27.1013 276.458 27.1013Z" fill="black"/>
<path d="M303.397 24.7932H287.444C287.325 24.7932 287.229 24.8927 287.229 25.0154V25.3981C287.229 25.5209 287.325 25.6203 287.444 25.6203H303.397C303.516 25.6203 303.612 25.5209 303.612 25.3981V25.0154C303.612 24.8927 303.516 24.7932 303.397 24.7932Z" fill="#CFCFCF"/>
<path d="M302.373 22.3856H287.444C287.325 22.3856 287.229 22.4851 287.229 22.6078V22.9905C287.229 23.1133 287.325 23.2128 287.444 23.2128H302.373C302.491 23.2128 302.587 23.1133 302.587 22.9905V22.6078C302.587 22.4851 302.491 22.3856 302.373 22.3856Z" fill="#CFCFCF"/>
<path d="M297.35 19.8342H287.444C287.325 19.8342 287.229 19.9337 287.229 20.0564V20.4391C287.229 20.5619 287.325 20.6614 287.444 20.6614H297.35C297.469 20.6614 297.565 20.5619 297.565 20.4391V20.0564C297.565 19.9337 297.469 19.8342 297.35 19.8342Z" fill="#CFCFCF"/>
<path d="M300.824 27.1013H287.444C287.325 27.1013 287.229 27.2008 287.229 27.3235V27.7062C287.229 27.829 287.325 27.9285 287.444 27.9285H300.824C300.943 27.9285 301.039 27.829 301.039 27.7062V27.3235C301.039 27.2008 300.943 27.1013 300.824 27.1013Z" fill="#CFCFCF"/>
<path d="M284.768 32.4591C285.112 32.4591 285.391 32.1699 285.391 31.8131C285.391 31.4562 285.112 31.167 284.768 31.167C284.424 31.167 284.145 31.4562 284.145 31.8131C284.145 32.1699 284.424 32.4591 284.768 32.4591Z" fill="#CFCFCF"/>
<path d="M286.374 32.4591C286.719 32.4591 286.998 32.1699 286.998 31.8131C286.998 31.4562 286.719 31.167 286.374 31.167C286.03 31.167 285.751 31.4562 285.751 31.8131C285.751 32.1699 286.03 32.4591 286.374 32.4591Z" fill="#CFCFCF"/>
<path d="M287.98 32.4591C288.324 32.4591 288.603 32.1699 288.603 31.8131C288.603 31.4562 288.324 31.167 287.98 31.167C287.636 31.167 287.356 31.4562 287.356 31.8131C287.356 32.1699 287.636 32.4591 287.98 32.4591Z" fill="#CFCFCF"/>
</g>
<g filter="url(#filter6_d_67_4852)">
<path d="M287.233 56.9485L313.438 31.9492H259.777L284.664 56.9155C285.007 57.2601 285.465 57.4554 285.942 57.4615C286.42 57.4677 286.882 57.2841 287.233 56.9485Z" fill="#FF9F00"/>
<path d="M287.443 6.82232L313.251 31.5788C313.296 31.6213 313.327 31.6767 313.341 31.738C313.355 31.7992 313.35 31.8633 313.328 31.9219C313.307 31.9806 313.268 32.031 313.218 32.0667C313.168 32.1024 313.109 32.1216 313.048 32.122H260.174C260.114 32.1216 260.056 32.1029 260.007 32.0682C259.957 32.0336 259.919 31.9845 259.896 31.9273C259.874 31.87 259.868 31.8072 259.88 31.7466C259.892 31.686 259.921 31.6305 259.963 31.587L284.449 6.85936C284.849 6.45722 285.382 6.22922 285.939 6.22233C286.496 6.21544 287.034 6.43018 287.443 6.82232Z" fill="#FF9F00"/>
<path d="M309.944 10.5754H263.089C262.916 10.5754 262.775 10.721 262.775 10.9005V47.1381C262.775 47.3176 262.916 47.4632 263.089 47.4632H309.944C310.118 47.4632 310.258 47.3176 310.258 47.1381V10.9005C310.258 10.721 310.118 10.5754 309.944 10.5754Z" fill="#A3C2FF"/>
<path d="M305.969 14.2544H266.764C266.107 14.2544 265.573 14.8071 265.573 15.4889V44.7226C265.573 45.4044 266.107 45.9571 266.764 45.9571H305.969C306.627 45.9571 307.16 45.4044 307.16 44.7226V15.4889C307.16 14.8071 306.627 14.2544 305.969 14.2544Z" fill="white"/>
<path d="M286.203 46.6151C286.477 46.4267 286.838 46.427 287.112 46.6158L310.968 63.0969C311.614 63.5429 311.298 64.5551 310.513 64.5551H262.715C261.929 64.5551 261.614 63.5414 262.261 63.0961L286.203 46.6151Z" fill="#FF9F00"/>
<path d="M286.492 45.7215L260.936 31.3392C260.816 31.2758 260.683 31.2449 260.548 31.2493C260.413 31.2537 260.282 31.2934 260.166 31.3646C260.051 31.4357 259.954 31.5361 259.886 31.6563C259.818 31.7765 259.781 31.9125 259.777 32.0518V63.7653C259.783 63.907 259.824 64.0448 259.896 64.1654C259.968 64.286 260.069 64.3853 260.189 64.4537C260.309 64.522 260.444 64.5571 260.582 64.5556C260.719 64.554 260.853 64.5159 260.972 64.4449L286.531 47.1136C286.643 47.0359 286.733 46.9303 286.795 46.8066C286.856 46.6829 286.886 46.5452 286.882 46.4062C286.878 46.2673 286.84 46.1316 286.772 46.0119C286.704 45.8922 286.607 45.7923 286.492 45.7215Z" fill="#FFDA44"/>
<path d="M286.733 45.7204L312.288 31.3372C312.408 31.2747 312.541 31.2445 312.675 31.2494C312.808 31.2543 312.939 31.2942 313.054 31.3652C313.169 31.4363 313.265 31.5363 313.333 31.656C313.401 31.7756 313.438 31.9111 313.442 32.0498V63.7652C313.437 63.907 313.396 64.0448 313.324 64.1654C313.251 64.286 313.15 64.3853 313.03 64.4536C312.91 64.522 312.775 64.5571 312.638 64.5556C312.501 64.554 312.367 64.5159 312.248 64.4449L286.678 47.1084C286.568 47.0292 286.479 46.9226 286.42 46.7986C286.36 46.6745 286.332 46.5369 286.338 46.3986C286.343 46.2602 286.382 46.1256 286.451 46.007C286.521 45.8885 286.618 45.7899 286.733 45.7204Z" fill="#FFDA44"/>
<path d="M303.476 16.0645H269.255C268.022 16.0645 267.023 17.0999 267.023 18.3771V31.208C267.023 32.4853 268.022 33.5207 269.255 33.5207H303.476C304.709 33.5207 305.708 32.4853 305.708 31.208V18.3771C305.708 17.0999 304.709 16.0645 303.476 16.0645Z" stroke="#CFCFCF" stroke-width="0.49" stroke-miterlimit="10"/>
<path d="M277.482 24.7932H269.152C269.033 24.7932 268.938 24.8927 268.938 25.0154V25.3981C268.938 25.5209 269.033 25.6203 269.152 25.6203H277.482C277.6 25.6203 277.696 25.5209 277.696 25.3981V25.0154C277.696 24.8927 277.6 24.7932 277.482 24.7932Z" fill="black"/>
<path d="M278.856 22.3856H269.152C269.033 22.3856 268.938 22.4851 268.938 22.6078V22.9905C268.938 23.1133 269.033 23.2128 269.152 23.2128H278.856C278.974 23.2128 279.07 23.1133 279.07 22.9905V22.6078C279.07 22.4851 278.974 22.3856 278.856 22.3856Z" fill="black"/>
<path d="M275.783 19.8342H269.152C269.033 19.8342 268.938 19.9337 268.938 20.0564V20.4391C268.938 20.5619 269.033 20.6614 269.152 20.6614H275.783C275.901 20.6614 275.997 20.5619 275.997 20.4391V20.0564C275.997 19.9337 275.901 19.8342 275.783 19.8342Z" fill="black"/>
<path d="M276.458 27.1013H269.152C269.033 27.1013 268.938 27.2008 268.938 27.3235V27.7062C268.938 27.829 269.033 27.9285 269.152 27.9285H276.458C276.576 27.9285 276.672 27.829 276.672 27.7062V27.3235C276.672 27.2008 276.576 27.1013 276.458 27.1013Z" fill="black"/>
<path d="M303.397 24.7932H287.444C287.325 24.7932 287.229 24.8927 287.229 25.0154V25.3981C287.229 25.5209 287.325 25.6203 287.444 25.6203H303.397C303.516 25.6203 303.612 25.5209 303.612 25.3981V25.0154C303.612 24.8927 303.516 24.7932 303.397 24.7932Z" fill="#CFCFCF"/>
<path d="M302.373 22.3856H287.444C287.325 22.3856 287.229 22.4851 287.229 22.6078V22.9905C287.229 23.1133 287.325 23.2128 287.444 23.2128H302.373C302.491 23.2128 302.587 23.1133 302.587 22.9905V22.6078C302.587 22.4851 302.491 22.3856 302.373 22.3856Z" fill="#CFCFCF"/>
<path d="M297.35 19.8342H287.444C287.325 19.8342 287.229 19.9337 287.229 20.0564V20.4391C287.229 20.5619 287.325 20.6614 287.444 20.6614H297.35C297.469 20.6614 297.565 20.5619 297.565 20.4391V20.0564C297.565 19.9337 297.469 19.8342 297.35 19.8342Z" fill="#CFCFCF"/>
<path d="M300.824 27.1013H287.444C287.325 27.1013 287.229 27.2008 287.229 27.3235V27.7062C287.229 27.829 287.325 27.9285 287.444 27.9285H300.824C300.943 27.9285 301.039 27.829 301.039 27.7062V27.3235C301.039 27.2008 300.943 27.1013 300.824 27.1013Z" fill="#CFCFCF"/>
<path d="M284.768 32.4591C285.112 32.4591 285.391 32.1699 285.391 31.8131C285.391 31.4562 285.112 31.167 284.768 31.167C284.424 31.167 284.145 31.4562 284.145 31.8131C284.145 32.1699 284.424 32.4591 284.768 32.4591Z" fill="#CFCFCF"/>
<path d="M286.374 32.4591C286.719 32.4591 286.998 32.1699 286.998 31.8131C286.998 31.4562 286.719 31.167 286.374 31.167C286.03 31.167 285.751 31.4562 285.751 31.8131C285.751 32.1699 286.03 32.4591 286.374 32.4591Z" fill="#CFCFCF"/>
<path d="M287.98 32.4591C288.324 32.4591 288.603 32.1699 288.603 31.8131C288.603 31.4562 288.324 31.167 287.98 31.167C287.636 31.167 287.356 31.4562 287.356 31.8131C287.356 32.1699 287.636 32.4591 287.98 32.4591Z" fill="#CFCFCF"/>
</g>
</g>
<defs>
<filter id="filter0_f_67_4852" x="-627.945" y="-279.323" width="1269.91" height="416.835" filterUnits="userSpaceOnUse" color-interpolation-filters="sRGB">
<feFlood flood-opacity="0" result="BackgroundImageFix"/>
<feBlend mode="normal" in="SourceGraphic" in2="BackgroundImageFix" result="shape"/>
<feGaussianBlur stdDeviation="50" result="effect1_foregroundBlur_67_4852"/>
</filter>
<filter id="filter1_f_67_4852" x="194.674" y="-255.887" width="835.205" height="409.91" filterUnits="userSpaceOnUse" color-interpolation-filters="sRGB">
<feFlood flood-opacity="0" result="BackgroundImageFix"/>
<feBlend mode="normal" in="SourceGraphic" in2="BackgroundImageFix" result="shape"/>
<feGaussianBlur stdDeviation="50" result="effect1_foregroundBlur_67_4852"/>
</filter>
<filter id="filter2_f_67_4852" x="202.419" y="-60.5266" width="890.459" height="425.648" filterUnits="userSpaceOnUse" color-interpolation-filters="sRGB">
<feFlood flood-opacity="0" result="BackgroundImageFix"/>
<feBlend mode="normal" in="SourceGraphic" in2="BackgroundImageFix" result="shape"/>
<feGaussianBlur stdDeviation="50" result="effect1_foregroundBlur_67_4852"/>
</filter>
<filter id="filter3_f_67_4852" x="-590.188" y="-64.3539" width="934.56" height="518.775" filterUnits="userSpaceOnUse" color-interpolation-filters="sRGB">
<feFlood flood-opacity="0" result="BackgroundImageFix"/>
<feBlend mode="normal" in="SourceGraphic" in2="BackgroundImageFix" result="shape"/>
<feGaussianBlur stdDeviation="50" result="effect1_foregroundBlur_67_4852"/>
</filter>
<filter id="filter4_bd_67_4852" x="-2.54434" y="-13.4334" width="576.756" height="98.7666" filterUnits="userSpaceOnUse" color-interpolation-filters="sRGB">
<feFlood flood-opacity="0" result="BackgroundImageFix"/>
<feGaussianBlur in="BackgroundImageFix" stdDeviation="12.55"/>
<feComposite in2="SourceAlpha" operator="in" result="effect1_backgroundBlur_67_4852"/>
<feColorMatrix in="SourceAlpha" type="matrix" values="0 0 0 0 0 0 0 0 0 0 0 0 0 0 0 0 0 0 127 0" result="hardAlpha"/>
<feMorphology radius="1" operator="erode" in="SourceAlpha" result="effect2_dropShadow_67_4852"/>
<feOffset dy="4"/>
<feGaussianBlur stdDeviation="12"/>
<feComposite in2="hardAlpha" operator="out"/>
<feColorMatrix type="matrix" values="0 0 0 0 0 0 0 0 0 0 0 0 0 0 0 0 0 0 0.2 0"/>
<feBlend mode="normal" in2="effect1_backgroundBlur_67_4852" result="effect2_dropShadow_67_4852"/>
<feBlend mode="normal" in="SourceGraphic" in2="effect2_dropShadow_67_4852" result="shape"/>
</filter>
<filter id="filter5_f_67_4852" x="257.777" y="4.22217" width="57.665" height="62.3335" filterUnits="userSpaceOnUse" color-interpolation-filters="sRGB">
<feFlood flood-opacity="0" result="BackgroundImageFix"/>
<feBlend mode="normal" in="SourceGraphic" in2="BackgroundImageFix" result="shape"/>
<feGaussianBlur stdDeviation="1" result="effect1_foregroundBlur_67_4852"/>
</filter>
<filter id="filter6_d_67_4852" x="249.777" y="-3.77783" width="73.665" height="78.3335" filterUnits="userSpaceOnUse" color-interpolation-filters="sRGB">
<feFlood flood-opacity="0" result="BackgroundImageFix"/>
<feColorMatrix in="SourceAlpha" type="matrix" values="0 0 0 0 0 0 0 0 0 0 0 0 0 0 0 0 0 0 127 0" result="hardAlpha"/>
<feOffset/>
<feGaussianBlur stdDeviation="5"/>
<feComposite in2="hardAlpha" operator="out"/>
<feColorMatrix type="matrix" values="0 0 0 0 0 0 0 0 0 0 0 0 0 0 0 0 0 0 0.25 0"/>
<feBlend mode="normal" in2="BackgroundImageFix" result="effect1_dropShadow_67_4852"/>
<feBlend mode="normal" in="SourceGraphic" in2="effect1_dropShadow_67_4852" result="shape"/>
</filter>
<linearGradient id="paint0_linear_67_4852" x1="121.768" y1="11.6666" x2="445.786" y2="196.817" gradientUnits="userSpaceOnUse">
<stop stop-color="white" stop-opacity="0.3"/>
<stop offset="1" stop-color="white" stop-opacity="0.1"/>
</linearGradient>
<radialGradient id="paint1_angular_67_4852" cx="0" cy="0" r="1" gradientUnits="userSpaceOnUse" gradientTransform="translate(292.31 35) rotate(-121.076) scale(75.8267 119.851)">
<stop offset="0.179454" stop-color="#892DF0" stop-opacity="0.4"/>
<stop offset="0.405703" stop-color="#6B4EE7" stop-opacity="0.1"/>
<stop offset="0.623249" stop-color="#D4C1E7" stop-opacity="0.75"/>
<stop offset="0.773031" stop-color="#25BBA4" stop-opacity="0.7"/>
<stop offset="0.840692" stop-color="#9030EF" stop-opacity="0.4"/>
</radialGradient>
<clipPath id="clip0_67_4852">
<rect width="572.444" height="70" fill="white"/>
</clipPath>
</defs>
</svg>