<svg width="398" height="70" viewBox="0 0 398 70" fill="none" xmlns="http://www.w3.org/2000/svg">
<g clip-path="url(#clip0_67_5276)">
<rect width="398" height="70" fill="white"/>
<rect x="-317" y="-29.9996" width="1031" height="131" fill="#6C85F0"/>
<g filter="url(#filter0_f_67_5276)">
<ellipse cx="-79.99" cy="-70.9055" rx="536.208" ry="102" transform="rotate(-3.99338 -79.99 -70.9055)" fill="#B01FFB"/>
</g>
<g filter="url(#filter1_f_67_5276)">
<ellipse cx="525.276" cy="-50.9315" rx="318.553" ry="102" transform="rotate(-4.68011 525.276 -50.9315)" fill="#B01FFB"/>
</g>
<g filter="url(#filter2_f_67_5276)">
<ellipse cx="560.648" cy="152.298" rx="348.567" ry="102" transform="rotate(8.30834 560.648 152.298)" fill="#1D41FB"/>
</g>
<g filter="url(#filter3_f_67_5276)">
<ellipse cx="-209.909" cy="195.034" rx="368.5" ry="156.5" transform="rotate(-5.1642 -209.909 195.034)" fill="#00FD97"/>
</g>
<g filter="url(#filter4_bd_67_5276)">
<rect x="19.9004" y="14" width="358.2" height="42" rx="8" fill="url(#paint0_linear_67_5276)" shape-rendering="crispEdges"/>
<rect x="20.4004" y="14.5" width="357.2" height="41" rx="7.5" stroke="url(#paint1_angular_67_5276)" shape-rendering="crispEdges"/>
</g>
<g filter="url(#filter5_f_67_5276)">
<path d="M200.174 54.8952L223.883 32.2769H175.333L197.85 54.8654C198.16 55.1771 198.574 55.3539 199.006 55.3594C199.438 55.3649 199.856 55.1988 200.174 54.8952Z" fill="#FF9F00"/>
<path d="M200.363 9.54299L223.713 31.9416C223.754 31.9801 223.782 32.0303 223.795 32.0857C223.807 32.1411 223.803 32.1991 223.783 32.2521C223.764 32.3052 223.729 32.3508 223.684 32.3831C223.638 32.4154 223.585 32.4328 223.53 32.4331H175.691C175.637 32.4327 175.585 32.4158 175.54 32.3845C175.495 32.3531 175.46 32.3088 175.44 32.257C175.42 32.2052 175.415 32.1483 175.425 32.0935C175.436 32.0387 175.462 31.9884 175.501 31.9491L197.655 9.5765C198.016 9.21266 198.499 9.00638 199.002 9.00015C199.506 8.99391 199.993 9.1882 200.363 9.54299Z" fill="#FF9F00"/>
<path d="M220.722 12.9387H178.329C178.172 12.9387 178.045 13.0703 178.045 13.2328V46.0191C178.045 46.1815 178.172 46.3132 178.329 46.3132H220.722C220.878 46.3132 221.005 46.1815 221.005 46.0191V13.2328C221.005 13.0703 220.878 12.9387 220.722 12.9387Z" fill="#A3C2FF"/>
<path d="M217.124 16.2672H181.654C181.059 16.2672 180.576 16.7673 180.576 17.3842V43.8336C180.576 44.4505 181.059 44.9506 181.654 44.9506H217.124C217.72 44.9506 218.202 44.4505 218.202 43.8336V17.3842C218.202 16.7673 217.72 16.2672 217.124 16.2672Z" fill="white"/>
<path d="M199.199 45.5756C199.473 45.3873 199.835 45.3876 200.108 45.5764L221.448 60.3191C222.093 60.7651 221.778 61.7773 220.993 61.7773H178.236C177.451 61.7773 177.136 60.7636 177.783 60.3183L199.199 45.5756Z" fill="#FF9F00"/>
<path d="M199.503 44.7374L176.381 31.7249C176.273 31.6675 176.152 31.6396 176.03 31.6436C175.909 31.6476 175.79 31.6835 175.685 31.7478C175.58 31.8122 175.493 31.903 175.432 32.0118C175.37 32.1205 175.336 32.2436 175.333 32.3696V61.0627C175.338 61.1909 175.375 61.3156 175.44 61.4247C175.506 61.5339 175.597 61.6237 175.706 61.6855C175.814 61.7474 175.937 61.7791 176.061 61.7777C176.185 61.7763 176.306 61.7418 176.414 61.6776L199.539 45.997C199.64 45.9267 199.722 45.8311 199.777 45.7192C199.833 45.6073 199.86 45.4827 199.856 45.3569C199.853 45.2312 199.819 45.1085 199.757 45.0002C199.695 44.8918 199.608 44.8015 199.503 44.7374Z" fill="#FFDA44"/>
<path d="M199.721 44.7364L222.842 31.7231C222.95 31.6665 223.07 31.6392 223.192 31.6437C223.313 31.6481 223.431 31.6841 223.535 31.7484C223.639 31.8127 223.726 31.9032 223.787 32.0115C223.849 32.1198 223.883 32.2423 223.886 32.3678V61.0627C223.881 61.1909 223.844 61.3156 223.779 61.4247C223.714 61.5338 223.622 61.6237 223.513 61.6855C223.405 61.7474 223.283 61.7791 223.159 61.7777C223.035 61.7763 222.913 61.7418 222.806 61.6776L199.671 45.9923C199.571 45.9206 199.491 45.8242 199.437 45.7119C199.383 45.5997 199.358 45.4752 199.363 45.35C199.368 45.2248 199.403 45.103 199.466 44.9957C199.529 44.8885 199.616 44.7993 199.721 44.7364Z" fill="#FFDA44"/>
<path d="M214.87 17.905H183.908C182.793 17.905 181.889 18.8418 181.889 19.9974V31.6063C181.889 32.7619 182.793 33.6987 183.908 33.6987H214.87C215.985 33.6987 216.889 32.7619 216.889 31.6063V19.9974C216.889 18.8418 215.985 17.905 214.87 17.905Z" stroke="#CFCFCF" stroke-width="0.49" stroke-miterlimit="10"/>
<path d="M191.352 25.8024H183.815C183.708 25.8024 183.621 25.8924 183.621 26.0034V26.3497C183.621 26.4607 183.708 26.5507 183.815 26.5507H191.352C191.459 26.5507 191.546 26.4607 191.546 26.3497V26.0034C191.546 25.8924 191.459 25.8024 191.352 25.8024Z" fill="black"/>
<path d="M192.595 23.624H183.815C183.708 23.624 183.621 23.714 183.621 23.8251V24.1713C183.621 24.2824 183.708 24.3724 183.815 24.3724H192.595C192.702 24.3724 192.789 24.2824 192.789 24.1713V23.8251C192.789 23.714 192.702 23.624 192.595 23.624Z" fill="black"/>
<path d="M189.814 21.3157H183.815C183.708 21.3157 183.621 21.4057 183.621 21.5167V21.863C183.621 21.974 183.708 22.064 183.815 22.064H189.814C189.921 22.064 190.008 21.974 190.008 21.863V21.5167C190.008 21.4057 189.921 21.3157 189.814 21.3157Z" fill="black"/>
<path d="M190.425 27.8906H183.815C183.708 27.8906 183.621 27.9806 183.621 28.0917V28.4379C183.621 28.549 183.708 28.639 183.815 28.639H190.425C190.532 28.639 190.619 28.549 190.619 28.4379V28.0917C190.619 27.9806 190.532 27.8906 190.425 27.8906Z" fill="black"/>
<path d="M214.799 25.8024H200.365C200.258 25.8024 200.171 25.8924 200.171 26.0034V26.3497C200.171 26.4607 200.258 26.5507 200.365 26.5507H214.799C214.906 26.5507 214.993 26.4607 214.993 26.3497V26.0034C214.993 25.8924 214.906 25.8024 214.799 25.8024Z" fill="#CFCFCF"/>
<path d="M213.872 23.624H200.365C200.258 23.624 200.171 23.714 200.171 23.8251V24.1713C200.171 24.2824 200.258 24.3724 200.365 24.3724H213.872C213.979 24.3724 214.066 24.2824 214.066 24.1713V23.8251C214.066 23.714 213.979 23.624 213.872 23.624Z" fill="#CFCFCF"/>
<path d="M209.328 21.3157H200.365C200.258 21.3157 200.171 21.4057 200.171 21.5167V21.863C200.171 21.974 200.258 22.064 200.365 22.064H209.328C209.435 22.064 209.522 21.974 209.522 21.863V21.5167C209.522 21.4057 209.435 21.3157 209.328 21.3157Z" fill="#CFCFCF"/>
<path d="M212.471 27.8906H200.365C200.258 27.8906 200.171 27.9806 200.171 28.0917V28.4379C200.171 28.549 200.258 28.639 200.365 28.639H212.471C212.578 28.639 212.665 28.549 212.665 28.4379V28.0917C212.665 27.9806 212.578 27.8906 212.471 27.8906Z" fill="#CFCFCF"/>
<path d="M197.943 32.7382C198.254 32.7382 198.507 32.4765 198.507 32.1536C198.507 31.8308 198.254 31.5691 197.943 31.5691C197.631 31.5691 197.379 31.8308 197.379 32.1536C197.379 32.4765 197.631 32.7382 197.943 32.7382Z" fill="#CFCFCF"/>
<path d="M199.397 32.7382C199.708 32.7382 199.961 32.4765 199.961 32.1536C199.961 31.8308 199.708 31.5691 199.397 31.5691C199.086 31.5691 198.833 31.8308 198.833 32.1536C198.833 32.4765 199.086 32.7382 199.397 32.7382Z" fill="#CFCFCF"/>
<path d="M200.849 32.7382C201.161 32.7382 201.413 32.4765 201.413 32.1536C201.413 31.8308 201.161 31.5691 200.849 31.5691C200.538 31.5691 200.285 31.8308 200.285 32.1536C200.285 32.4765 200.538 32.7382 200.849 32.7382Z" fill="#CFCFCF"/>
</g>
<g filter="url(#filter6_d_67_5276)">
<path d="M200.174 54.8952L223.883 32.2769H175.333L197.85 54.8654C198.16 55.1771 198.574 55.3539 199.006 55.3594C199.438 55.3649 199.856 55.1988 200.174 54.8952Z" fill="#FF9F00"/>
<path d="M200.363 9.54299L223.713 31.9416C223.754 31.9801 223.782 32.0303 223.795 32.0857C223.807 32.1411 223.803 32.1991 223.783 32.2521C223.764 32.3052 223.729 32.3508 223.684 32.3831C223.638 32.4154 223.585 32.4328 223.53 32.4331H175.691C175.637 32.4327 175.585 32.4158 175.54 32.3845C175.495 32.3531 175.46 32.3088 175.44 32.257C175.42 32.2052 175.415 32.1483 175.425 32.0935C175.436 32.0387 175.462 31.9884 175.501 31.9491L197.655 9.5765C198.016 9.21266 198.499 9.00638 199.002 9.00015C199.506 8.99391 199.993 9.1882 200.363 9.54299Z" fill="#FF9F00"/>
<path d="M220.722 12.9387H178.329C178.172 12.9387 178.045 13.0703 178.045 13.2328V46.0191C178.045 46.1815 178.172 46.3132 178.329 46.3132H220.722C220.878 46.3132 221.005 46.1815 221.005 46.0191V13.2328C221.005 13.0703 220.878 12.9387 220.722 12.9387Z" fill="#A3C2FF"/>
<path d="M217.124 16.2672H181.654C181.059 16.2672 180.576 16.7673 180.576 17.3842V43.8336C180.576 44.4505 181.059 44.9506 181.654 44.9506H217.124C217.72 44.9506 218.202 44.4505 218.202 43.8336V17.3842C218.202 16.7673 217.72 16.2672 217.124 16.2672Z" fill="white"/>
<path d="M199.199 45.5756C199.473 45.3873 199.835 45.3876 200.108 45.5764L221.448 60.3191C222.093 60.7651 221.778 61.7773 220.993 61.7773H178.236C177.451 61.7773 177.136 60.7636 177.783 60.3183L199.199 45.5756Z" fill="#FF9F00"/>
<path d="M199.503 44.7374L176.381 31.7249C176.273 31.6675 176.152 31.6396 176.03 31.6436C175.909 31.6476 175.79 31.6835 175.685 31.7478C175.58 31.8122 175.493 31.903 175.432 32.0118C175.37 32.1205 175.336 32.2436 175.333 32.3696V61.0627C175.338 61.1909 175.375 61.3156 175.44 61.4247C175.506 61.5339 175.597 61.6237 175.706 61.6855C175.814 61.7474 175.937 61.7791 176.061 61.7777C176.185 61.7763 176.306 61.7418 176.414 61.6776L199.539 45.997C199.64 45.9267 199.722 45.8311 199.777 45.7192C199.833 45.6073 199.86 45.4827 199.856 45.3569C199.853 45.2312 199.819 45.1085 199.757 45.0002C199.695 44.8918 199.608 44.8015 199.503 44.7374Z" fill="#FFDA44"/>
<path d="M199.721 44.7364L222.842 31.7231C222.95 31.6665 223.07 31.6392 223.192 31.6437C223.313 31.6481 223.431 31.6841 223.535 31.7484C223.639 31.8127 223.726 31.9032 223.787 32.0115C223.849 32.1198 223.883 32.2423 223.886 32.3678V61.0627C223.881 61.1909 223.844 61.3156 223.779 61.4247C223.714 61.5338 223.622 61.6237 223.513 61.6855C223.405 61.7474 223.283 61.7791 223.159 61.7777C223.035 61.7763 222.913 61.7418 222.806 61.6776L199.671 45.9923C199.571 45.9206 199.491 45.8242 199.437 45.7119C199.383 45.5997 199.358 45.4752 199.363 45.35C199.368 45.2248 199.403 45.103 199.466 44.9957C199.529 44.8885 199.616 44.7993 199.721 44.7364Z" fill="#FFDA44"/>
<path d="M214.87 17.905H183.908C182.793 17.905 181.889 18.8418 181.889 19.9974V31.6063C181.889 32.7619 182.793 33.6987 183.908 33.6987H214.87C215.985 33.6987 216.889 32.7619 216.889 31.6063V19.9974C216.889 18.8418 215.985 17.905 214.87 17.905Z" stroke="#CFCFCF" stroke-width="0.49" stroke-miterlimit="10"/>
<path d="M191.352 25.8024H183.815C183.708 25.8024 183.621 25.8924 183.621 26.0034V26.3497C183.621 26.4607 183.708 26.5507 183.815 26.5507H191.352C191.459 26.5507 191.546 26.4607 191.546 26.3497V26.0034C191.546 25.8924 191.459 25.8024 191.352 25.8024Z" fill="black"/>
<path d="M192.595 23.624H183.815C183.708 23.624 183.621 23.714 183.621 23.8251V24.1713C183.621 24.2824 183.708 24.3724 183.815 24.3724H192.595C192.702 24.3724 192.789 24.2824 192.789 24.1713V23.8251C192.789 23.714 192.702 23.624 192.595 23.624Z" fill="black"/>
<path d="M189.814 21.3157H183.815C183.708 21.3157 183.621 21.4057 183.621 21.5167V21.863C183.621 21.974 183.708 22.064 183.815 22.064H189.814C189.921 22.064 190.008 21.974 190.008 21.863V21.5167C190.008 21.4057 189.921 21.3157 189.814 21.3157Z" fill="black"/>
<path d="M190.425 27.8906H183.815C183.708 27.8906 183.621 27.9806 183.621 28.0917V28.4379C183.621 28.549 183.708 28.639 183.815 28.639H190.425C190.532 28.639 190.619 28.549 190.619 28.4379V28.0917C190.619 27.9806 190.532 27.8906 190.425 27.8906Z" fill="black"/>
<path d="M214.799 25.8024H200.365C200.258 25.8024 200.171 25.8924 200.171 26.0034V26.3497C200.171 26.4607 200.258 26.5507 200.365 26.5507H214.799C214.906 26.5507 214.993 26.4607 214.993 26.3497V26.0034C214.993 25.8924 214.906 25.8024 214.799 25.8024Z" fill="#CFCFCF"/>
<path d="M213.872 23.624H200.365C200.258 23.624 200.171 23.714 200.171 23.8251V24.1713C200.171 24.2824 200.258 24.3724 200.365 24.3724H213.872C213.979 24.3724 214.066 24.2824 214.066 24.1713V23.8251C214.066 23.714 213.979 23.624 213.872 23.624Z" fill="#CFCFCF"/>
<path d="M209.328 21.3157H200.365C200.258 21.3157 200.171 21.4057 200.171 21.5167V21.863C200.171 21.974 200.258 22.064 200.365 22.064H209.328C209.435 22.064 209.522 21.974 209.522 21.863V21.5167C209.522 21.4057 209.435 21.3157 209.328 21.3157Z" fill="#CFCFCF"/>
<path d="M212.471 27.8906H200.365C200.258 27.8906 200.171 27.9806 200.171 28.0917V28.4379C200.171 28.549 200.258 28.639 200.365 28.639H212.471C212.578 28.639 212.665 28.549 212.665 28.4379V28.0917C212.665 27.9806 212.578 27.8906 212.471 27.8906Z" fill="#CFCFCF"/>
<path d="M197.943 32.7382C198.254 32.7382 198.507 32.4765 198.507 32.1536C198.507 31.8308 198.254 31.5691 197.943 31.5691C197.631 31.5691 197.379 31.8308 197.379 32.1536C197.379 32.4765 197.631 32.7382 197.943 32.7382Z" fill="#CFCFCF"/>
<path d="M199.397 32.7382C199.708 32.7382 199.961 32.4765 199.961 32.1536C199.961 31.8308 199.708 31.5691 199.397 31.5691C199.086 31.5691 198.833 31.8308 198.833 32.1536C198.833 32.4765 199.086 32.7382 199.397 32.7382Z" fill="#CFCFCF"/>
<path d="M200.849 32.7382C201.161 32.7382 201.413 32.4765 201.413 32.1536C201.413 31.8308 201.161 31.5691 200.849 31.5691C200.538 31.5691 200.285 31.8308 200.285 32.1536C200.285 32.4765 200.538 32.7382 200.849 32.7382Z" fill="#CFCFCF"/>
</g>
</g>
<defs>
<filter id="filter0_f_67_5276" x="-714.945" y="-279.323" width="1269.91" height="416.835" filterUnits="userSpaceOnUse" color-interpolation-filters="sRGB">
<feFlood flood-opacity="0" result="BackgroundImageFix"/>
<feBlend mode="normal" in="SourceGraphic" in2="BackgroundImageFix" result="shape"/>
<feGaussianBlur stdDeviation="50" result="effect1_foregroundBlur_67_5276"/>
</filter>
<filter id="filter1_f_67_5276" x="107.674" y="-255.887" width="835.205" height="409.91" filterUnits="userSpaceOnUse" color-interpolation-filters="sRGB">
<feFlood flood-opacity="0" result="BackgroundImageFix"/>
<feBlend mode="normal" in="SourceGraphic" in2="BackgroundImageFix" result="shape"/>
<feGaussianBlur stdDeviation="50" result="effect1_foregroundBlur_67_5276"/>
</filter>
<filter id="filter2_f_67_5276" x="115.419" y="-60.5266" width="890.459" height="425.648" filterUnits="userSpaceOnUse" color-interpolation-filters="sRGB">
<feFlood flood-opacity="0" result="BackgroundImageFix"/>
<feBlend mode="normal" in="SourceGraphic" in2="BackgroundImageFix" result="shape"/>
<feGaussianBlur stdDeviation="50" result="effect1_foregroundBlur_67_5276"/>
</filter>
<filter id="filter3_f_67_5276" x="-677.188" y="-64.3539" width="934.56" height="518.775" filterUnits="userSpaceOnUse" color-interpolation-filters="sRGB">
<feFlood flood-opacity="0" result="BackgroundImageFix"/>
<feBlend mode="normal" in="SourceGraphic" in2="BackgroundImageFix" result="shape"/>
<feGaussianBlur stdDeviation="50" result="effect1_foregroundBlur_67_5276"/>
</filter>
<filter id="filter4_bd_67_5276" x="-5.19961" y="-11.1" width="408.4" height="94.1" filterUnits="userSpaceOnUse" color-interpolation-filters="sRGB">
<feFlood flood-opacity="0" result="BackgroundImageFix"/>
<feGaussianBlur in="BackgroundImageFix" stdDeviation="12.55"/>
<feComposite in2="SourceAlpha" operator="in" result="effect1_backgroundBlur_67_5276"/>
<feColorMatrix in="SourceAlpha" type="matrix" values="0 0 0 0 0 0 0 0 0 0 0 0 0 0 0 0 0 0 127 0" result="hardAlpha"/>
<feMorphology radius="1" operator="erode" in="SourceAlpha" result="effect2_dropShadow_67_5276"/>
<feOffset dy="4"/>
<feGaussianBlur stdDeviation="12"/>
<feComposite in2="hardAlpha" operator="out"/>
<feColorMatrix type="matrix" values="0 0 0 0 0 0 0 0 0 0 0 0 0 0 0 0 0 0 0.2 0"/>
<feBlend mode="normal" in2="effect1_backgroundBlur_67_5276" result="effect2_dropShadow_67_5276"/>
<feBlend mode="normal" in="SourceGraphic" in2="effect2_dropShadow_67_5276" result="shape"/>
</filter>
<filter id="filter5_f_67_5276" x="173.333" y="7" width="52.5527" height="56.7778" filterUnits="userSpaceOnUse" color-interpolation-filters="sRGB">
<feFlood flood-opacity="0" result="BackgroundImageFix"/>
<feBlend mode="normal" in="SourceGraphic" in2="BackgroundImageFix" result="shape"/>
<feGaussianBlur stdDeviation="1" result="effect1_foregroundBlur_67_5276"/>
</filter>
<filter id="filter6_d_67_5276" x="165.333" y="-1" width="68.5527" height="72.7778" filterUnits="userSpaceOnUse" color-interpolation-filters="sRGB">
<feFlood flood-opacity="0" result="BackgroundImageFix"/>
<feColorMatrix in="SourceAlpha" type="matrix" values="0 0 0 0 0 0 0 0 0 0 0 0 0 0 0 0 0 0 127 0" result="hardAlpha"/>
<feOffset/>
<feGaussianBlur stdDeviation="5"/>
<feComposite in2="hardAlpha" operator="out"/>
<feColorMatrix type="matrix" values="0 0 0 0 0 0 0 0 0 0 0 0 0 0 0 0 0 0 0.25 0"/>
<feBlend mode="normal" in2="BackgroundImageFix" result="effect1_dropShadow_67_5276"/>
<feBlend mode="normal" in="SourceGraphic" in2="effect1_dropShadow_67_5276" result="shape"/>
</filter>
<linearGradient id="paint0_linear_67_5276" x1="87.3914" y1="14" x2="333.813" y2="120.432" gradientUnits="userSpaceOnUse">
<stop stop-color="white" stop-opacity="0.3"/>
<stop offset="1" stop-color="white" stop-opacity="0.1"/>
</linearGradient>
<radialGradient id="paint1_angular_67_5276" cx="0" cy="0" r="1" gradientUnits="userSpaceOnUse" gradientTransform="translate(203.406 35) rotate(-114.491) scale(64.2287 86.6278)">
<stop offset="0.179454" stop-color="#892DF0" stop-opacity="0.4"/>
<stop offset="0.405703" stop-color="#6B4EE7" stop-opacity="0.1"/>
<stop offset="0.623249" stop-color="#D4C1E7" stop-opacity="0.75"/>
<stop offset="0.773031" stop-color="#25BBA4" stop-opacity="0.7"/>
<stop offset="0.840692" stop-color="#9030EF" stop-opacity="0.4"/>
</radialGradient>
<clipPath id="clip0_67_5276">
<rect width="398" height="70" fill="white"/>
</clipPath>
</defs>
</svg>