<svg width="1030" height="90" viewBox="0 0 1030 90" fill="none" xmlns="http://www.w3.org/2000/svg">
 <g clip-path="url(#clip0_1_29552)">
 <rect width="1030" height="90" fill="white"/>
 <rect x="-0.999756" y="-19.9996" width="1031" height="131" fill="#6C85F0"/>
 <g filter="url(#filter0_f_1_29552)">
 <ellipse cx="236.01" cy="-60.9055" rx="536.208" ry="102" transform="rotate(-3.99338 236.01 -60.9055)" fill="#B01FFB"/>
 </g>
 <g filter="url(#filter1_f_1_29552)">
 <ellipse cx="841.276" cy="-40.9315" rx="318.553" ry="102" transform="rotate(-4.68011 841.276 -40.9315)" fill="#B01FFB"/>
 </g>
 <g filter="url(#filter2_f_1_29552)">
 <ellipse cx="876.648" cy="162.298" rx="348.567" ry="102" transform="rotate(8.30834 876.648 162.298)" fill="#1D41FB"/>
 </g>
 <g filter="url(#filter3_f_1_29552)">
 <ellipse cx="106.091" cy="205.034" rx="368.5" ry="156.5" transform="rotate(-5.1642 106.091 205.034)" fill="#00FD97"/>
 </g>
 <g filter="url(#filter4_bd_1_29552)">
 <rect x="47" y="15" width="935" height="60" rx="8" fill="url(#paint0_linear_1_29552)" shape-rendering="crispEdges"/>
 <rect x="47.5" y="15.5" width="934" height="59" rx="7.5" stroke="url(#paint1_angular_1_29552)" shape-rendering="crispEdges"/>
 </g>
 <g filter="url(#filter5_f_1_29552)">
 <path d="M516.3 73.2195L549.992 41.0776H481L512.997 73.1772C513.438 73.6201 514.026 73.8713 514.64 73.8792C515.255 73.8871 515.848 73.651 516.3 73.2195Z" fill="#FF9F00"/>
 <path d="M516.57 8.77163L549.751 40.6013C549.809 40.656 549.849 40.7273 549.867 40.806C549.885 40.8847 549.879 40.9672 549.851 41.0425C549.823 41.1179 549.773 41.1828 549.709 41.2287C549.645 41.2746 549.569 41.2993 549.491 41.2997H481.509C481.433 41.2992 481.358 41.2752 481.294 41.2306C481.231 41.1861 481.182 41.123 481.153 41.0494C481.124 40.9758 481.116 40.895 481.132 40.8171C481.147 40.7393 481.184 40.6678 481.239 40.6119L512.721 8.81924C513.234 8.3022 513.92 8.00907 514.636 8.00021C515.352 7.99135 516.044 8.26744 516.57 8.77163Z" fill="#FF9F00"/>
 <path d="M545.501 13.597H485.258C485.035 13.597 484.855 13.7842 484.855 14.015V60.6062C484.855 60.837 485.035 61.0242 485.258 61.0242H545.501C545.723 61.0242 545.904 60.837 545.904 60.6062V14.015C545.904 13.7842 545.723 13.597 545.501 13.597Z" fill="#A3C2FF"/>
 <path d="M540.389 18.3271H489.984C489.138 18.3271 488.452 19.0378 488.452 19.9144V57.5005C488.452 58.3772 489.138 59.0878 489.984 59.0878H540.389C541.235 59.0878 541.921 58.3772 541.921 57.5005V19.9144C541.921 19.0378 541.235 18.3271 540.389 18.3271Z" fill="white"/>
 <path d="M515.106 59.8443C515.38 59.656 515.741 59.6563 516.014 59.8451L547.419 81.5412C548.065 81.9872 547.749 82.9994 546.965 82.9994H484.041C483.256 82.9994 482.941 81.9858 483.588 81.5405L515.106 59.8443Z" fill="#FF9F00"/>
 <path d="M515.347 58.7848L482.489 40.2933C482.335 40.2117 482.164 40.172 481.991 40.1777C481.818 40.1834 481.649 40.2343 481.5 40.3258C481.351 40.4174 481.227 40.5464 481.14 40.7009C481.052 40.8554 481.004 41.0304 481 41.2094V81.9839C481.007 82.1661 481.059 82.3433 481.152 82.4984C481.245 82.6534 481.375 82.7811 481.529 82.8689C481.684 82.9568 481.858 83.002 482.034 83C482.21 82.998 482.383 82.949 482.535 82.8577L515.398 60.5746C515.541 60.4747 515.658 60.3389 515.736 60.1799C515.815 60.0209 515.854 59.8438 515.849 59.6651C515.844 59.4865 515.795 59.312 515.707 59.1581C515.619 59.0042 515.495 58.8758 515.347 58.7848Z" fill="#FFDA44"/>
 <path d="M515.657 58.7833L548.513 40.2906C548.667 40.2103 548.838 40.1715 549.01 40.1778C549.183 40.1841 549.35 40.2353 549.498 40.3267C549.646 40.4181 549.77 40.5466 549.857 40.7005C549.944 40.8543 549.992 41.0285 549.997 41.2068V81.9838C549.99 82.1661 549.938 82.3433 549.845 82.4983C549.752 82.6534 549.622 82.7811 549.468 82.8689C549.313 82.9568 549.14 83.002 548.963 83C548.787 82.998 548.614 82.949 548.462 82.8576L515.586 60.5679C515.445 60.4661 515.33 60.3291 515.254 60.1696C515.178 60.01 515.141 59.8332 515.149 59.6553C515.156 59.4774 515.206 59.3043 515.295 59.1518C515.384 58.9994 515.508 58.8727 515.657 58.7833Z" fill="#FFDA44"/>
 <path d="M537.184 20.6544H493.185C491.6 20.6544 490.316 21.9857 490.316 23.6279V40.1247C490.316 41.7669 491.6 43.0982 493.185 43.0982H537.184C538.768 43.0982 540.053 41.7669 540.053 40.1247V23.6279C540.053 21.9857 538.768 20.6544 537.184 20.6544Z" stroke="#CFCFCF" stroke-width="0.49" stroke-miterlimit="10"/>
 <path d="M503.763 31.877H493.053C492.901 31.877 492.777 32.0049 492.777 32.1627V32.6547C492.777 32.8125 492.901 32.9404 493.053 32.9404H503.763C503.915 32.9404 504.039 32.8125 504.039 32.6547V32.1627C504.039 32.0049 503.915 31.877 503.763 31.877Z" fill="black"/>
 <path d="M505.529 28.7816H493.053C492.901 28.7816 492.777 28.9095 492.777 29.0673V29.5594C492.777 29.7172 492.901 29.8451 493.053 29.8451H505.529C505.681 29.8451 505.805 29.7172 505.805 29.5594V29.0673C505.805 28.9095 505.681 28.7816 505.529 28.7816Z" fill="black"/>
 <path d="M501.578 25.5012H493.053C492.901 25.5012 492.777 25.6291 492.777 25.7869V26.279C492.777 26.4368 492.901 26.5647 493.053 26.5647H501.578C501.73 26.5647 501.854 26.4368 501.854 26.279V25.7869C501.854 25.6291 501.73 25.5012 501.578 25.5012Z" fill="black"/>
 <path d="M502.446 34.8447H493.053C492.901 34.8447 492.777 34.9726 492.777 35.1304V35.6225C492.777 35.7803 492.901 35.9082 493.053 35.9082H502.446C502.598 35.9082 502.721 35.7803 502.721 35.6225V35.1304C502.721 34.9726 502.598 34.8447 502.446 34.8447Z" fill="black"/>
 <path d="M537.082 31.877H516.57C516.418 31.877 516.295 32.0049 516.295 32.1627V32.6547C516.295 32.8125 516.418 32.9404 516.57 32.9404H537.082C537.234 32.9404 537.358 32.8125 537.358 32.6547V32.1627C537.358 32.0049 537.234 31.877 537.082 31.877Z" fill="#CFCFCF"/>
 <path d="M535.765 28.7816H516.57C516.418 28.7816 516.295 28.9095 516.295 29.0673V29.5594C516.295 29.7172 516.418 29.8451 516.57 29.8451H535.765C535.917 29.8451 536.04 29.7172 536.04 29.5594V29.0673C536.04 28.9095 535.917 28.7816 535.765 28.7816Z" fill="#CFCFCF"/>
 <path d="M529.307 25.5012H516.57C516.418 25.5012 516.295 25.6291 516.295 25.7869V26.279C516.295 26.4368 516.418 26.5647 516.57 26.5647H529.307C529.459 26.5647 529.583 26.4368 529.583 26.279V25.7869C529.583 25.6291 529.459 25.5012 529.307 25.5012Z" fill="#CFCFCF"/>
 <path d="M533.774 34.8447H516.57C516.418 34.8447 516.295 34.9726 516.295 35.1304V35.6225C516.295 35.7803 516.418 35.9082 516.57 35.9082H533.774C533.926 35.9082 534.05 35.7803 534.05 35.6225V35.1304C534.05 34.9726 533.926 34.8447 533.774 34.8447Z" fill="#CFCFCF"/>
 <path d="M513.131 41.7332C513.574 41.7332 513.933 41.3613 513.933 40.9026C513.933 40.4438 513.574 40.0719 513.131 40.0719C512.688 40.0719 512.33 40.4438 512.33 40.9026C512.33 41.3613 512.688 41.7332 513.131 41.7332Z" fill="#CFCFCF"/>
 <path d="M515.197 41.7332C515.639 41.7332 515.998 41.3613 515.998 40.9026C515.998 40.4438 515.639 40.0719 515.197 40.0719C514.754 40.0719 514.395 40.4438 514.395 40.9026C514.395 41.3613 514.754 41.7332 515.197 41.7332Z" fill="#CFCFCF"/>
 <path d="M517.261 41.7332C517.703 41.7332 518.062 41.3613 518.062 40.9026C518.062 40.4438 517.703 40.0719 517.261 40.0719C516.818 40.0719 516.459 40.4438 516.459 40.9026C516.459 41.3613 516.818 41.7332 517.261 41.7332Z" fill="#CFCFCF"/>
 </g>
 <g filter="url(#filter6_d_1_29552)">
 <path d="M516.3 73.2195L549.992 41.0776H481L512.997 73.1772C513.438 73.6201 514.026 73.8713 514.64 73.8792C515.255 73.8871 515.848 73.651 516.3 73.2195Z" fill="#FF9F00"/>
 <path d="M516.57 8.77163L549.751 40.6013C549.809 40.656 549.849 40.7273 549.867 40.806C549.885 40.8847 549.879 40.9672 549.851 41.0425C549.823 41.1179 549.773 41.1828 549.709 41.2287C549.645 41.2746 549.569 41.2993 549.491 41.2997H481.509C481.433 41.2992 481.358 41.2752 481.294 41.2306C481.231 41.1861 481.182 41.123 481.153 41.0494C481.124 40.9758 481.116 40.895 481.132 40.8171C481.147 40.7393 481.184 40.6678 481.239 40.6119L512.721 8.81924C513.234 8.3022 513.92 8.00907 514.636 8.00021C515.352 7.99135 516.044 8.26744 516.57 8.77163Z" fill="#FF9F00"/>
 <path d="M545.501 13.597H485.258C485.035 13.597 484.855 13.7842 484.855 14.015V60.6062C484.855 60.837 485.035 61.0242 485.258 61.0242H545.501C545.723 61.0242 545.904 60.837 545.904 60.6062V14.015C545.904 13.7842 545.723 13.597 545.501 13.597Z" fill="#A3C2FF"/>
 <path d="M540.389 18.3271H489.984C489.138 18.3271 488.452 19.0378 488.452 19.9144V57.5005C488.452 58.3772 489.138 59.0878 489.984 59.0878H540.389C541.235 59.0878 541.921 58.3772 541.921 57.5005V19.9144C541.921 19.0378 541.235 18.3271 540.389 18.3271Z" fill="white"/>
 <path d="M515.106 59.8443C515.38 59.656 515.741 59.6563 516.014 59.8451L547.419 81.5412C548.065 81.9872 547.749 82.9994 546.965 82.9994H484.041C483.256 82.9994 482.941 81.9858 483.588 81.5405L515.106 59.8443Z" fill="#FF9F00"/>
 <path d="M515.347 58.7848L482.489 40.2933C482.335 40.2117 482.164 40.172 481.991 40.1777C481.818 40.1834 481.649 40.2343 481.5 40.3258C481.351 40.4174 481.227 40.5464 481.14 40.7009C481.052 40.8554 481.004 41.0304 481 41.2094V81.9839C481.007 82.1661 481.059 82.3433 481.152 82.4984C481.245 82.6534 481.375 82.7811 481.529 82.8689C481.684 82.9568 481.858 83.002 482.034 83C482.21 82.998 482.383 82.949 482.535 82.8577L515.398 60.5746C515.541 60.4747 515.658 60.3389 515.736 60.1799C515.815 60.0209 515.854 59.8438 515.849 59.6651C515.844 59.4865 515.795 59.312 515.707 59.1581C515.619 59.0042 515.495 58.8758 515.347 58.7848Z" fill="#FFDA44"/>
 <path d="M515.657 58.7833L548.513 40.2906C548.667 40.2103 548.838 40.1715 549.01 40.1778C549.183 40.1841 549.35 40.2353 549.498 40.3267C549.646 40.4181 549.77 40.5466 549.857 40.7005C549.944 40.8543 549.992 41.0285 549.997 41.2068V81.9838C549.99 82.1661 549.938 82.3433 549.845 82.4983C549.752 82.6534 549.622 82.7811 549.468 82.8689C549.313 82.9568 549.14 83.002 548.963 83C548.787 82.998 548.614 82.949 548.462 82.8576L515.586 60.5679C515.445 60.4661 515.33 60.3291 515.254 60.1696C515.178 60.01 515.141 59.8332 515.149 59.6553C515.156 59.4774 515.206 59.3043 515.295 59.1518C515.384 58.9994 515.508 58.8727 515.657 58.7833Z" fill="#FFDA44"/>
 <path d="M537.184 20.6544H493.185C491.6 20.6544 490.316 21.9857 490.316 23.6279V40.1247C490.316 41.7669 491.6 43.0982 493.185 43.0982H537.184C538.768 43.0982 540.053 41.7669 540.053 40.1247V23.6279C540.053 21.9857 538.768 20.6544 537.184 20.6544Z" stroke="#CFCFCF" stroke-width="0.49" stroke-miterlimit="10"/>
 <path d="M503.763 31.877H493.053C492.901 31.877 492.777 32.0049 492.777 32.1627V32.6547C492.777 32.8125 492.901 32.9404 493.053 32.9404H503.763C503.915 32.9404 504.039 32.8125 504.039 32.6547V32.1627C504.039 32.0049 503.915 31.877 503.763 31.877Z" fill="black"/>
 <path d="M505.529 28.7816H493.053C492.901 28.7816 492.777 28.9095 492.777 29.0673V29.5594C492.777 29.7172 492.901 29.8451 493.053 29.8451H505.529C505.681 29.8451 505.805 29.7172 505.805 29.5594V29.0673C505.805 28.9095 505.681 28.7816 505.529 28.7816Z" fill="black"/>
 <path d="M501.578 25.5012H493.053C492.901 25.5012 492.777 25.6291 492.777 25.7869V26.279C492.777 26.4368 492.901 26.5647 493.053 26.5647H501.578C501.73 26.5647 501.854 26.4368 501.854 26.279V25.7869C501.854 25.6291 501.73 25.5012 501.578 25.5012Z" fill="black"/>
 <path d="M502.446 34.8447H493.053C492.901 34.8447 492.777 34.9726 492.777 35.1304V35.6225C492.777 35.7803 492.901 35.9082 493.053 35.9082H502.446C502.598 35.9082 502.721 35.7803 502.721 35.6225V35.1304C502.721 34.9726 502.598 34.8447 502.446 34.8447Z" fill="black"/>
 <path d="M537.082 31.877H516.57C516.418 31.877 516.295 32.0049 516.295 32.1627V32.6547C516.295 32.8125 516.418 32.9404 516.57 32.9404H537.082C537.234 32.9404 537.358 32.8125 537.358 32.6547V32.1627C537.358 32.0049 537.234 31.877 537.082 31.877Z" fill="#CFCFCF"/>
 <path d="M535.765 28.7816H516.57C516.418 28.7816 516.295 28.9095 516.295 29.0673V29.5594C516.295 29.7172 516.418 29.8451 516.57 29.8451H535.765C535.917 29.8451 536.04 29.7172 536.04 29.5594V29.0673C536.04 28.9095 535.917 28.7816 535.765 28.7816Z" fill="#CFCFCF"/>
 <path d="M529.307 25.5012H516.57C516.418 25.5012 516.295 25.6291 516.295 25.7869V26.279C516.295 26.4368 516.418 26.5647 516.57 26.5647H529.307C529.459 26.5647 529.583 26.4368 529.583 26.279V25.7869C529.583 25.6291 529.459 25.5012 529.307 25.5012Z" fill="#CFCFCF"/>
 <path d="M533.774 34.8447H516.57C516.418 34.8447 516.295 34.9726 516.295 35.1304V35.6225C516.295 35.7803 516.418 35.9082 516.57 35.9082H533.774C533.926 35.9082 534.05 35.7803 534.05 35.6225V35.1304C534.05 34.9726 533.926 34.8447 533.774 34.8447Z" fill="#CFCFCF"/>
 <path d="M513.131 41.7332C513.574 41.7332 513.933 41.3613 513.933 40.9026C513.933 40.4438 513.574 40.0719 513.131 40.0719C512.688 40.0719 512.33 40.4438 512.33 40.9026C512.33 41.3613 512.688 41.7332 513.131 41.7332Z" fill="#CFCFCF"/>
 <path d="M515.197 41.7332C515.639 41.7332 515.998 41.3613 515.998 40.9026C515.998 40.4438 515.639 40.0719 515.197 40.0719C514.754 40.0719 514.395 40.4438 514.395 40.9026C514.395 41.3613 514.754 41.7332 515.197 41.7332Z" fill="#CFCFCF"/>
 <path d="M517.261 41.7332C517.703 41.7332 518.062 41.3613 518.062 40.9026C518.062 40.4438 517.703 40.0719 517.261 40.0719C516.818 40.0719 516.459 40.4438 516.459 40.9026C516.459 41.3613 516.818 41.7332 517.261 41.7332Z" fill="#CFCFCF"/>
 </g>
 </g>
 <defs>
 <filter id="filter0_f_1_29552" x="-398.945" y="-269.323" width="1269.91" height="416.835" filterUnits="userSpaceOnUse" color-interpolation-filters="sRGB">
 <feFlood flood-opacity="0" result="BackgroundImageFix"/>
 <feBlend mode="normal" in="SourceGraphic" in2="BackgroundImageFix" result="shape"/>
 <feGaussianBlur stdDeviation="50" result="effect1_foregroundBlur_1_29552"/>
 </filter>
 <filter id="filter1_f_1_29552" x="423.674" y="-245.887" width="835.205" height="409.91" filterUnits="userSpaceOnUse" color-interpolation-filters="sRGB">
 <feFlood flood-opacity="0" result="BackgroundImageFix"/>
 <feBlend mode="normal" in="SourceGraphic" in2="BackgroundImageFix" result="shape"/>
 <feGaussianBlur stdDeviation="50" result="effect1_foregroundBlur_1_29552"/>
 </filter>
 <filter id="filter2_f_1_29552" x="431.418" y="-50.5266" width="890.459" height="425.648" filterUnits="userSpaceOnUse" color-interpolation-filters="sRGB">
 <feFlood flood-opacity="0" result="BackgroundImageFix"/>
 <feBlend mode="normal" in="SourceGraphic" in2="BackgroundImageFix" result="shape"/>
 <feGaussianBlur stdDeviation="50" result="effect1_foregroundBlur_1_29552"/>
 </filter>
 <filter id="filter3_f_1_29552" x="-361.188" y="-54.3539" width="934.559" height="518.775" filterUnits="userSpaceOnUse" color-interpolation-filters="sRGB">
 <feFlood flood-opacity="0" result="BackgroundImageFix"/>
 <feBlend mode="normal" in="SourceGraphic" in2="BackgroundImageFix" result="shape"/>
 <feGaussianBlur stdDeviation="50" result="effect1_foregroundBlur_1_29552"/>
 </filter>
 <filter id="filter4_bd_1_29552" x="21.9" y="-10.1" width="985.2" height="112.1" filterUnits="userSpaceOnUse" color-interpolation-filters="sRGB">
 <feFlood flood-opacity="0" result="BackgroundImageFix"/>
 <feGaussianBlur in="BackgroundImageFix" stdDeviation="12.55"/>
 <feComposite in2="SourceAlpha" operator="in" result="effect1_backgroundBlur_1_29552"/>
 <feColorMatrix in="SourceAlpha" type="matrix" values="0 0 0 0 0 0 0 0 0 0 0 0 0 0 0 0 0 0 127 0" result="hardAlpha"/>
 <feMorphology radius="1" operator="erode" in="SourceAlpha" result="effect2_dropShadow_1_29552"/>
 <feOffset dy="4"/>
 <feGaussianBlur stdDeviation="12"/>
 <feComposite in2="hardAlpha" operator="out"/>
 <feColorMatrix type="matrix" values="0 0 0 0 0 0 0 0 0 0 0 0 0 0 0 0 0 0 0.2 0"/>
 <feBlend mode="normal" in2="effect1_backgroundBlur_1_29552" result="effect2_dropShadow_1_29552"/>
 <feBlend mode="normal" in="SourceGraphic" in2="effect2_dropShadow_1_29552" result="shape"/>
 </filter>
 <filter id="filter5_f_1_29552" x="479" y="6" width="72.9974" height="79" filterUnits="userSpaceOnUse" color-interpolation-filters="sRGB">
 <feFlood flood-opacity="0" result="BackgroundImageFix"/>
 <feBlend mode="normal" in="SourceGraphic" in2="BackgroundImageFix" result="shape"/>
 <feGaussianBlur stdDeviation="1" result="effect1_foregroundBlur_1_29552"/>
 </filter>
 <filter id="filter6_d_1_29552" x="471" y="-2" width="88.9974" height="95" filterUnits="userSpaceOnUse" color-interpolation-filters="sRGB">
 <feFlood flood-opacity="0" result="BackgroundImageFix"/>
 <feColorMatrix in="SourceAlpha" type="matrix" values="0 0 0 0 0 0 0 0 0 0 0 0 0 0 0 0 0 0 127 0" result="hardAlpha"/>
 <feOffset/>
 <feGaussianBlur stdDeviation="5"/>
 <feComposite in2="hardAlpha" operator="out"/>
 <feColorMatrix type="matrix" values="0 0 0 0 0 0 0 0 0 0 0 0 0 0 0 0 0 0 0.25 0"/>
 <feBlend mode="normal" in2="BackgroundImageFix" result="effect1_dropShadow_1_29552"/>
 <feBlend mode="normal" in="SourceGraphic" in2="effect1_dropShadow_1_29552" result="shape"/>
 </filter>
 <linearGradient id="paint0_linear_1_29552" x1="223.17" y1="15" x2="693.478" y2="386.16" gradientUnits="userSpaceOnUse">
 <stop stop-color="white" stop-opacity="0.3"/>
 <stop offset="1" stop-color="white" stop-opacity="0.1"/>
 </linearGradient>
 <radialGradient id="paint1_angular_1_29552" cx="0" cy="0" r="1" gradientUnits="userSpaceOnUse" gradientTransform="translate(526 45) rotate(-129.772) scale(108.639 190.98)">
 <stop offset="0.179454" stop-color="#892DF0" stop-opacity="0.4"/>
 <stop offset="0.405703" stop-color="#6B4EE7" stop-opacity="0.1"/>
 <stop offset="0.623249" stop-color="#D4C1E7" stop-opacity="0.75"/>
 <stop offset="0.773031" stop-color="#25BBA4" stop-opacity="0.7"/>
 <stop offset="0.840692" stop-color="#9030EF" stop-opacity="0.4"/>
 </radialGradient>
 <clipPath id="clip0_1_29552">
 <rect width="1030" height="90" fill="white"/>
 </clipPath>
 </defs>
 </svg>